<svg width="228" height="228" viewBox="0 0 228 228" fill="none" xmlns="http://www.w3.org/2000/svg">
<rect width="228" height="228" rx="114" fill="black"/>
<path d="M190.413 117.993V121.654C187.645 121.654 185.712 122.227 184.615 123.373C183.517 124.52 182.969 126.404 182.969 129.025V136.101C182.969 138.607 182.682 140.712 182.109 142.415C181.552 144.135 180.692 145.511 179.529 146.543C178.366 147.575 176.892 148.32 175.106 148.779C173.321 149.238 171.216 149.467 168.792 149.467V143.644C170.692 143.644 172.174 143.357 173.239 142.784C174.304 142.227 175.041 141.359 175.45 140.179C175.876 139.016 176.089 137.534 176.089 135.732V126.789C176.089 125.527 176.277 124.364 176.654 123.3C177.031 122.219 177.727 121.285 178.743 120.499C179.758 119.696 181.208 119.082 183.092 118.656C184.975 118.214 187.416 117.993 190.413 117.993ZM168.792 86.7886C171.216 86.7886 173.321 87.0179 175.106 87.4766C176.892 87.9352 178.366 88.6805 179.529 89.7124C180.692 90.7444 181.552 92.1203 182.109 93.8402C182.682 95.5437 182.969 97.6486 182.969 100.155V107.206C182.969 109.844 183.517 111.735 184.615 112.882C185.712 114.012 187.645 114.577 190.413 114.577V118.263C187.416 118.263 184.975 118.042 183.092 117.599C181.208 117.157 179.758 116.543 178.743 115.757C177.727 114.97 177.031 114.045 176.654 112.98C176.277 111.899 176.089 110.728 176.089 109.467V100.523C176.089 98.7051 175.876 97.2145 175.45 96.0515C175.041 94.8722 174.304 94.004 173.239 93.4471C172.174 92.8902 170.692 92.6117 168.792 92.6117V86.7886ZM190.413 114.577V121.654H183.607V114.577H190.413Z" fill="white"/>
<path d="M36.4079 118.263V114.577C39.1761 114.577 41.1089 114.012 42.2064 112.882C43.3039 111.735 43.8526 109.844 43.8526 107.206V100.155C43.8526 97.6486 44.1311 95.5437 44.688 93.8402C45.2613 92.1203 46.1294 90.7444 47.2924 89.7124C48.4554 88.6805 49.9296 87.9352 51.715 87.4766C53.5004 87.0179 55.6053 86.7886 58.0295 86.7886V92.6117C56.1294 92.6117 54.647 92.8902 53.5823 93.4471C52.5176 94.004 51.7723 94.8722 51.3465 96.0515C50.937 97.2145 50.7322 98.7051 50.7322 100.523V109.467C50.7322 110.728 50.5438 111.899 50.1671 112.98C49.7904 114.045 49.0942 114.97 48.0786 115.757C47.0631 116.543 45.6135 117.157 43.7297 117.599C41.846 118.042 39.4054 118.263 36.4079 118.263ZM58.0295 149.467C55.6053 149.467 53.5004 149.238 51.715 148.779C49.9296 148.32 48.4554 147.575 47.2924 146.543C46.1294 145.511 45.2613 144.135 44.688 142.415C44.1311 140.712 43.8526 138.607 43.8526 136.101V129.025C43.8526 126.404 43.3039 124.52 42.2064 123.373C41.1089 122.227 39.1761 121.654 36.4079 121.654V117.993C39.4054 117.993 41.846 118.214 43.7297 118.656C45.6135 119.082 47.0631 119.696 48.0786 120.499C49.0942 121.285 49.7904 122.219 50.1671 123.3C50.5438 124.364 50.7322 125.527 50.7322 126.789V135.732C50.7322 137.534 50.937 139.016 51.3465 140.179C51.7723 141.359 52.5176 142.227 53.5823 142.784C54.647 143.357 56.1294 143.644 58.0295 143.644V149.467ZM36.4079 121.654V114.577H43.2138V121.654H36.4079Z" fill="white"/>
<rect x="153.392" y="97.946" width="5.18916" height="10.3783" fill="white"/>
<rect x="70.3643" y="97.9459" width="5.18916" height="10.3783" fill="white"/>
<rect x="148.201" y="92.7568" width="5.18916" height="5.18917" fill="white"/>
<rect x="143.011" y="87.5675" width="5.18916" height="5.18917" fill="white"/>
<rect width="5.18916" height="5.18917" transform="matrix(-1 0 0 1 80.7412 92.7568)" fill="white"/>
<rect x="148.201" y="108.324" width="5.18916" height="5.18917" fill="white"/>
<rect width="5.18916" height="5.18917" transform="matrix(-1 0 0 1 80.7412 108.324)" fill="white"/>
<rect width="5.18916" height="5.18917" transform="matrix(-1 0 0 1 85.9316 87.5675)" fill="white"/>
<rect x="132.634" y="113.513" width="15.5675" height="5.18917" fill="white"/>
<rect width="15.5675" height="5.18917" transform="matrix(-1 0 0 1 96.3105 113.513)" fill="white"/>
<rect width="10.3783" height="5.18917" transform="matrix(-1 0 0 1 106.688 139.459)" fill="white"/>
<rect width="10.3783" height="5.18917" transform="matrix(-1 0 0 1 132.634 139.459)" fill="white"/>
<rect width="15.5675" height="5.18917" transform="matrix(-1 0 0 1 122.255 144.649)" fill="white"/>
<rect width="5.18916" height="25.9459" transform="matrix(-1 0 0 1 96.3105 113.513)" fill="white"/>
<rect width="5.18916" height="25.9459" transform="matrix(-1 0 0 1 101.5 113.513)" fill="#E1E1E1"/>
<rect width="10.3783" height="5.18917" transform="matrix(-1 0 0 1 106.688 134.27)" fill="#E1E1E1"/>
<rect width="15.5675" height="5.18917" transform="matrix(-1 0 0 1 122.255 139.459)" fill="#E1E1E1"/>
<rect width="31.1349" height="5.18917" transform="matrix(-1 0 0 1 132.634 113.513)" fill="#E1E1E1"/>
<rect width="10.3783" height="5.18917" transform="matrix(-1 0 0 1 91.1201 108.324)" fill="#E1E1E1"/>
<rect width="5.18916" height="5.18917" transform="matrix(-1 0 0 1 80.7412 103.135)" fill="#E1E1E1"/>
<rect width="5.18916" height="5.18917" transform="matrix(-1 0 0 1 80.7412 103.135)" fill="#E1E1E1"/>
<rect width="15.5675" height="5.18917" transform="matrix(-1 0 0 1 122.255 77.1891)" fill="#E1E1E1"/>
<rect width="15.5675" height="5.18917" transform="matrix(-1 0 0 1 132.634 82.3785)" fill="#E1E1E1"/>
<rect width="15.5675" height="5.18917" transform="matrix(-1 0 0 1 143.011 87.5675)" fill="#E1E1E1"/>
<rect width="15.5675" height="5.18917" transform="matrix(-1 0 0 1 143.011 87.5675)" fill="#E1E1E1"/>
<rect width="5.18916" height="5.18917" transform="matrix(-1 0 0 1 148.201 92.7568)" fill="#E1E1E1"/>
<rect width="5.18916" height="10.3783" transform="matrix(-1 0 0 1 153.392 97.946)" fill="#E1E1E1"/>
<rect width="5.18916" height="25.9459" transform="matrix(-1 0 0 1 137.824 113.513)" fill="white"/>
<rect x="132.634" y="82.3785" width="10.3783" height="5.18917" fill="white"/>
<rect x="122.255" y="77.1891" width="10.3783" height="5.18917" fill="white"/>
<rect x="85.9316" y="82.3784" width="10.3783" height="5.18917" fill="white"/>
<rect x="96.3105" y="77.1891" width="10.3783" height="5.18917" fill="white"/>
<rect x="106.688" y="72.0001" width="15.5675" height="5.18917" fill="white"/>
</svg>
